# xmcd CD database file
#
# Track frame offsets:
#	150
#	22497
#	47716
#	71886
#	97203
#	123650
#	141105
#	155117
#	181337
#	197783
#	216943
#	239670
#	254472
#
# Disc length: 3690 seconds
#
# Revision: 0
# Processed by: cddbd v1.5.2PL0 Copyright (c) Steve Scherf et al.
# Submitted via: CDex 1.51
#
DISCID=da0e680d
DTITLE=Muddy Shoes - Cool
DYEAR=2004
DGENRE=Blues
TTITLE0=All I Want
TTITLE1=Don't Burn Down the Bridge
TTITLE2=One Place Tonight
TTITLE3=Something You Got
TTITLE4=One More Glass
TTITLE5=Chicken Pie
TTITLE6=Black Eugene
TTITLE7=The Way the Wind Blows
TTITLE8=Péaying the Cost to be the Boss
TTITLE9=Lowdown Alligator
TTITLE10=All Night Long
TTITLE11=Early in the Morning
TTITLE12=Uton (All I Want hungarian version)
EXTD=YEAR: 2004
EXTT0=
EXTT1=
EXTT2=
EXTT3=
EXTT4=
EXTT5=
EXTT6=
EXTT7=
EXTT8=
EXTT9=
EXTT10=
EXTT11=
EXTT12=
PLAYORDER=
